<?xml version="1.0" encoding="UTF-8"?>
<svg id="_Слой_1" data-name="Слой_1" xmlns="http://www.w3.org/2000/svg" version="1.1" viewBox="0 0 450 850">
  <!-- Generator: Adobe Illustrator 30.1.0, SVG Export Plug-In . SVG Version: 2.1.1 Build 136)  -->
    <defs>
        <style>
            .st0 {
            fill: #f7a429;
            }

            .st1 {
            fill: #65211e;
            }

            .st2 {
            fill: #f08223;
            }

            .st3 {
            fill: #f8ac37;
            }

            .st4 {
            fill: #fab853;
            }

            .st5 {
            fill: #623914;
            }

            .st6 {
            fill: #f7a52b;
            }
        </style>
    </defs>
    <g>
        <polygon class="st1" points="294.27 510.46 344.29 481.58 344.29 423.81 294.27 394.93 244.24 423.81 244.24 481.58 294.27 510.46"/>
        <polygon class="st0" points="252.23 425.78 294.27 402.46 336.27 425.78 294.27 450.36 252.23 425.78"/>
        <polygon class="st6" points="297.77 455.24 338.99 431.2 338.99 477.84 297.77 502.06 297.77 455.24"/>
        <polygon class="st2" points="290.76 455.24 249.55 431.2 249.55 477.84 290.76 502.06 290.76 455.24"/>
    </g>
    <g>
        <polygon class="st1" points="168.42 510.46 218.45 481.58 218.45 423.81 168.42 394.93 118.4 423.81 118.4 481.58 168.42 510.46"/>
        <polygon class="st0" points="126.38 425.78 168.42 402.46 210.43 425.78 168.42 450.36 126.38 425.78"/>
        <polygon class="st2" points="171.93 455.24 213.14 431.2 213.14 477.84 171.93 502.06 171.93 455.24"/>
        <polygon class="st2" points="164.91 455.24 123.7 431.2 123.7 477.84 164.91 502.06 164.91 455.24"/>
    </g>
    <g>
        <polygon class="st1" points="231.58 400.28 280.25 372.18 280.25 315.97 231.58 287.86 182.9 315.97 182.9 372.18 231.58 400.28"/>
        <polygon class="st0" points="190.67 317.88 231.58 295.19 272.45 317.88 231.58 341.8 190.67 317.88"/>
        <polygon class="st2" points="234.99 346.55 275.09 323.16 275.09 368.53 234.99 392.1 234.99 346.55"/>
        <polygon class="st2" points="228.16 346.55 188.06 323.16 188.06 368.53 228.16 392.1 228.16 346.55"/>
    </g>
    <g>
        <polygon class="st1" points="293.56 441.5 345.22 411.67 345.22 352.03 293.56 322.2 241.91 352.03 241.91 411.67 293.56 441.5"/>
        <polygon class="st0" points="250.15 354.06 293.56 329.98 336.94 354.06 293.56 379.44 250.15 354.06"/>
        <polygon class="st6" points="297.19 384.48 339.74 359.66 339.74 407.81 297.19 432.82 297.19 384.48"/>
        <polygon class="st2" points="289.94 384.48 247.39 359.66 247.39 407.81 289.94 432.82 289.94 384.48"/>
    </g>
    <g>
        <polygon class="st1" points="168.42 441.5 220.08 411.67 220.08 352.03 168.42 322.2 116.77 352.03 116.77 411.67 168.42 441.5"/>
        <polygon class="st0" points="125.01 354.06 168.42 329.98 211.8 354.06 168.42 379.44 125.01 354.06"/>
        <polygon class="st2" points="172.04 384.48 214.6 359.66 214.6 407.81 172.04 432.82 172.04 384.48"/>
        <polygon class="st2" points="164.8 384.48 122.25 359.66 122.25 407.81 164.8 432.82 164.8 384.48"/>
    </g>
    <polygon class="st2" points="231.54 563.58 231.54 563.58 104.89 490.46 104.89 371.51 81.11 358.04 81.11 504.19 231.54 591.04 231.54 563.58"/>
    <polygon class="st4" points="358.15 344.19 358.19 344.21 358.19 490.46 255.36 549.83 255.36 577.29 381.97 504.19 381.97 330.6 358.15 344.19"/>
    <polygon class="st3" points="231.54 271.09 334.26 330.4 358.18 316.75 231.54 243.63 81.11 330.48 81.11 330.66 104.96 344.17 231.54 271.09"/>
    <polygon class="st1" points="232.16 548.32 283.81 518.49 283.81 458.85 232.16 429.02 180.5 458.85 180.5 518.49 232.16 548.32"/>
    <polygon class="st0" points="188.75 460.88 232.16 436.8 275.54 460.88 232.16 486.26 188.75 460.88"/>
    <polygon class="st6" points="235.78 491.3 278.33 466.48 278.33 514.63 235.78 539.64 235.78 491.3"/>
    <polygon class="st2" points="228.54 491.3 185.98 466.48 185.98 514.63 228.54 539.64 228.54 491.3"/>
    <polygon class="st1" points="232.16 476.77 283.81 446.95 283.81 387.3 232.16 357.48 180.5 387.3 180.5 446.95 232.16 476.77"/>
    <polygon class="st0" points="188.75 389.33 232.16 365.26 275.54 389.33 232.16 414.71 188.75 389.33"/>
    <polygon class="st6" points="235.78 419.75 278.33 394.93 278.33 443.08 235.78 468.09 235.78 419.75"/>
    <polygon class="st2" points="228.54 419.75 185.98 394.93 185.98 443.08 228.54 468.09 228.54 419.75"/>
    <!-- <path class="st2" d="M411.99,356.86c.07-3.13.71-6.04,1.92-8.74,1.21-2.7,2.86-5.06,4.96-7.09,2.09-2.02,4.53-3.64,7.3-4.85,2.77-1.21,5.72-1.81,8.84-1.81h28.99c3.13.07,6.07.71,8.84,1.92,2.77,1.21,5.17,2.84,7.19,4.9,2.02,2.06,3.62,4.46,4.79,7.19,1.17,2.74,1.76,5.67,1.76,8.79v6.82h-15.24v-6.82c0-2.06-.75-3.84-2.24-5.33-1.49-1.49-3.27-2.24-5.33-2.24h-28.67c-2.06,0-3.87.75-5.43,2.24-1.56,1.49-2.34,3.27-2.34,5.33l-.11,29.09c0,2.06.75,3.82,2.24,5.27,1.49,1.46,3.27,2.18,5.33,2.18h28.99c2.06,0,3.84-.75,5.33-2.24,1.49-1.49,2.24-3.27,2.24-5.33v-6.93h15.24v6.93c0,3.13-.59,6.06-1.76,8.79-1.17,2.74-2.77,5.13-4.79,7.19-2.02,2.06-4.42,3.69-7.19,4.9-2.77,1.21-5.72,1.85-8.84,1.92h-29.41c-3.13-.07-6.06-.71-8.79-1.92-2.74-1.21-5.12-2.82-7.14-4.85s-3.64-4.4-4.85-7.14c-1.21-2.73-1.81-5.63-1.81-8.68v-29.52Z"/> -->
    <!-- <path class="st2" d="M607.43,349.61h-22.8v-15.24h60.74v15.24h-22.7v59.36h-15.24v-59.36Z"/> -->
    <!-- <path class="st2" d="M657.09,357.07c0-3.13.6-6.07,1.81-8.84,1.21-2.77,2.86-5.19,4.96-7.25,2.09-2.06,4.51-3.68,7.25-4.85,2.73-1.17,5.66-1.76,8.79-1.76h12.57c3.2,0,6.18.59,8.95,1.76s5.18,2.79,7.25,4.85c2.06,2.06,3.69,4.48,4.9,7.25,1.21,2.77,1.81,5.72,1.81,8.84v51.9h-15.24v-23.44h-27.81v23.44h-15.24v-51.9ZM679.89,349.61c-2.06,0-3.84.75-5.33,2.24-1.49,1.49-2.24,3.27-2.24,5.33v13.11h27.81v-13.11c0-2.06-.75-3.84-2.24-5.33-1.49-1.49-3.27-2.24-5.33-2.24h-12.68Z"/> -->
    <!-- <path class="st5" d="M466,426.27h50.94v15.24h-35.7v13.64h20.25c3.13,0,6.07.6,8.84,1.81,2.77,1.21,5.18,2.84,7.25,4.9,2.06,2.06,3.69,4.48,4.9,7.25,1.21,2.77,1.81,5.75,1.81,8.95s-.6,6.07-1.81,8.84c-1.21,2.77-2.84,5.19-4.9,7.25s-4.48,3.69-7.25,4.9c-2.77,1.21-5.72,1.81-8.84,1.81h-35.49v-74.59ZM481.24,470.39v15.24h20.25c2.06,0,3.84-.75,5.33-2.24,1.49-1.49,2.24-3.3,2.24-5.44s-.75-3.84-2.24-5.33c-1.49-1.49-3.27-2.24-5.33-2.24h-20.25Z"/> -->
    <!-- <path class="st5" d="M622.33,426.27h15.24v29.73h6.93l20.14-29.73h18.33l-25.26,37.3,25.26,37.3h-18.33l-20.03-29.62h-7.03v29.62h-15.24v-74.59Z"/> -->
    <!-- <path class="st5" d="M694.69,448.76c.07-3.13.71-6.04,1.92-8.74,1.21-2.7,2.86-5.06,4.96-7.09,2.09-2.02,4.53-3.64,7.3-4.85,2.77-1.21,5.72-1.81,8.84-1.81h28.99c3.13.07,6.07.71,8.84,1.92,2.77,1.21,5.17,2.84,7.19,4.9,2.02,2.06,3.62,4.46,4.79,7.19,1.17,2.74,1.76,5.67,1.76,8.79v6.82h-15.24v-6.82c0-2.06-.75-3.84-2.24-5.33-1.49-1.49-3.27-2.24-5.33-2.24h-28.67c-2.06,0-3.87.75-5.44,2.24-1.56,1.49-2.34,3.27-2.34,5.33l-.11,29.09c0,2.06.75,3.82,2.24,5.27,1.49,1.46,3.27,2.18,5.33,2.18h28.99c2.06,0,3.84-.75,5.33-2.24,1.49-1.49,2.24-3.27,2.24-5.33v-6.93h15.24v6.93c0,3.13-.59,6.06-1.76,8.79-1.17,2.74-2.77,5.13-4.79,7.19-2.02,2.06-4.42,3.69-7.19,4.9-2.77,1.21-5.72,1.85-8.84,1.92h-29.41c-3.13-.07-6.06-.71-8.79-1.92-2.74-1.21-5.12-2.82-7.14-4.85s-3.64-4.4-4.85-7.14c-1.21-2.73-1.81-5.63-1.81-8.69v-29.52Z"/> -->
    <!-- <polygon class="st2" points="537.04 398.91 536.86 399.01 514.95 386.07 512.37 384.57 512.39 384.56 512.29 384.49 512.29 356.27 537.03 341.71 561.87 356.19 561.87 384.41 550.18 391.24 563.31 398.86 574.91 392.16 574.91 348.41 537.03 326.54 499.15 348.41 499.15 392.16 537.03 414.03 550.08 406.49 537.04 398.91"/> -->
    <!-- <polygon class="st5" points="573.31 420.05 560.23 427.61 598.15 449.63 598.09 449.66 598.15 449.7 598.15 477.92 573.14 492.53 548.56 478.01 548.56 449.78 560.21 442.93 547 435.25 535.43 441.93 535.43 485.67 573.31 507.54 611.19 485.67 611.19 441.93 573.31 420.05"/> -->
    <!-- <polygon class="st2" points="537.03 414.03 574.91 392.16 561.87 384.41 536.86 399.01 537.03 414.03"/> -->
    <!-- <polygon class="st5" points="548.56 449.78 586.53 427.69 573.31 420.05 535.43 441.93 548.56 449.78"/> -->
</svg>